<svg width="19" height="19" viewBox="0 0 19 19" fill="none" xmlns="http://www.w3.org/2000/svg">
<path fill-rule="evenodd" clip-rule="evenodd" d="M0.849431 0.659012C0.939869 0.562028 1.11182 0.54848 1.32745 0.621348C1.54308 0.694215 1.78473 0.847529 1.99924 1.04756L18.1755 16.1321C18.39 16.3322 18.5598 16.5625 18.6475 16.7726C18.7352 16.9826 18.7337 17.155 18.6433 17.252C18.5528 17.349 18.3809 17.3626 18.1652 17.2897C17.9496 17.2168 17.708 17.0635 17.4935 16.8635L1.31724 1.77892C1.10273 1.57888 0.932935 1.34852 0.845203 1.13849C0.757471 0.92847 0.758992 0.755995 0.849431 0.659012Z" fill="#2C2D35"/>
<path fill-rule="evenodd" clip-rule="evenodd" d="M17.2026 0.725982C17.3012 0.814714 17.3209 0.982857 17.2575 1.19342C17.1941 1.40398 17.0527 1.63972 16.8645 1.84877L2.67011 17.6132C2.48188 17.8223 2.26221 17.9875 2.05943 18.0726C1.85665 18.1577 1.68737 18.1556 1.58882 18.0669C1.49027 17.9782 1.47053 17.81 1.53395 17.5995C1.59736 17.3889 1.73874 17.1532 1.92697 16.9441L16.1214 1.17964C16.3096 0.97059 16.5293 0.805351 16.732 0.720274C16.9348 0.635196 17.1041 0.637249 17.2026 0.725982Z" fill="#2C2D35"/>
</svg>
