<svg width="204" height="211" viewBox="0 0 204 211" fill="none" xmlns="http://www.w3.org/2000/svg">
<circle cx="122" cy="82" r="77" stroke="#A7C5AE" stroke-width="10"/>
<path d="M6.34315 193.343L0.686292 199L12 210.314L17.6569 204.657L6.34315 193.343ZM65.3431 134.343L6.34315 193.343L17.6569 204.657L76.6569 145.657L65.3431 134.343Z" fill="#A7C5AE"/>
<path d="M112.175 89.625C112.175 88.075 112.325 86.625 112.625 85.275C112.925 83.925 113.5 82.65 114.35 81.45C115.25 80.25 116.55 79.175 118.25 78.225C118.9 77.825 119.75 77.375 120.8 76.875C121.9 76.325 122.975 75.675 124.025 74.925C125.075 74.175 125.95 73.3 126.65 72.3C127.4 71.3 127.775 70.2 127.775 69C127.775 67.9 127.475 66.975 126.875 66.225C126.325 65.425 125.6 64.825 124.7 64.425C123.85 63.975 122.9 63.75 121.85 63.75C120.55 63.75 119.4 64.05 118.4 64.65C117.45 65.25 116.65 65.975 116 66.825C115.35 67.625 114.775 68.4 114.275 69.15L106.55 63.75C107.4 61.7 108.6 59.975 110.15 58.575C111.75 57.125 113.575 56.025 115.625 55.275C117.725 54.475 119.95 54.075 122.3 54.075C124.15 54.075 126.025 54.35 127.925 54.9C129.825 55.45 131.55 56.325 133.1 57.525C134.65 58.725 135.875 60.3 136.775 62.25C137.725 64.15 138.2 66.425 138.2 69.075C138.2 70.525 138.05 71.85 137.75 73.05C137.5 74.2 137.075 75.275 136.475 76.275C135.875 77.225 135.125 78.125 134.225 78.975C133.325 79.775 132.325 80.55 131.225 81.3C129.825 82.2 128.425 83.025 127.025 83.775C125.625 84.475 124.45 85.275 123.5 86.175C122.55 87.075 122.075 88.225 122.075 89.625H112.175ZM112.4 108V96.75H122.225V108H112.4Z" fill="#A7C5AE"/>
</svg>
